<svg id="svg" version="1.1" xmlns="http://www.w3.org/2000/svg" width="400" height="400"><g id="svgg" stroke="none" fill-rule="evenodd"><path id="path0" d="M0 200v200h400V0H0v200m310.036-18.244c16.068 1.159 27.77 6.342 37.478 16.6 3.248 3.432 9.698 12.359 9.443 13.069-.115.319-27.645 18.098-28.58 18.456-.334.129-1.165-.847-2.358-2.769-12.885-20.758-44.108-15.107-39.722 7.189 1.621 8.239 6.16 11.635 28.342 21.206 24.964 10.771 36.722 18.507 44.408 29.217 11.422 15.914 12.183 41.512 1.741 58.523-19.416 31.632-80.603 33.899-110.408 4.092-6.198-6.199-13.387-16.481-12.257-17.531.612-.569 29.523-17.26 29.896-17.26.157 0 1.249 1.411 2.428 3.136 9.162 13.412 19.317 19.064 34.306 19.094 17.276.034 27.22-8.07 25.618-20.879-1.156-9.236-6.751-13.544-31.131-23.972-33.888-14.495-46.3-26.752-49.601-48.983-5.403-36.389 20.777-62.044 60.397-59.188m-93.033 71.381c-.115 63.705-.179 69.755-.774 72.719-5.32 26.473-21.367 40.142-49.585 42.237-26.658 1.979-48.472-9.269-59.998-30.935l-1.683-3.164 15.05-9.107c8.277-5.009 15.161-9.151 15.297-9.204.136-.053 1.133 1.419 2.215 3.27 6.823 11.673 12.542 15.676 22.385 15.672 11.209-.005 16.607-4.006 19.034-14.108.639-2.661.689-6.982.803-69.852l.121-67.015h37.26l-.125 69.487" fill="#f3db4c"/><path id="path1" d="M297.601 181.783c-32.774 2.704-52.696 27.278-47.962 59.161 3.301 22.231 15.713 34.488 49.601 48.983 24.38 10.428 29.975 14.736 31.131 23.972 1.602 12.809-8.342 20.913-25.618 20.879-14.989-.03-25.144-5.682-34.306-19.094-1.179-1.725-2.271-3.136-2.428-3.136-.373 0-29.284 16.691-29.896 17.26-1.13 1.05 6.059 11.332 12.257 17.531 29.805 29.807 90.992 27.54 110.408-4.092 10.442-17.011 9.681-42.609-1.741-58.523-7.686-10.71-19.444-18.446-44.408-29.217-22.182-9.571-26.721-12.967-28.342-21.206-2.259-11.484 5.383-20.021 17.886-19.98 9.385.031 16.504 4.201 21.836 12.791 1.193 1.922 2.024 2.898 2.358 2.769.935-.358 28.465-18.137 28.58-18.456.255-.71-6.195-9.637-9.443-13.069-11.984-12.663-28.965-18.301-49.913-16.573m-117.854 68.882c-.114 62.87-.164 67.191-.803 69.852-2.427 10.102-7.825 14.103-19.034 14.108-9.843.004-15.562-3.999-22.385-15.672-1.082-1.851-2.079-3.323-2.215-3.27-.136.053-7.02 4.195-15.297 9.204l-15.05 9.107 1.683 3.164c11.526 21.666 33.34 32.914 59.998 30.935 28.218-2.095 44.265-15.764 49.585-42.237.595-2.964.659-9.014.774-72.719l.125-69.487h-37.26l-.121 67.015" fill="#343434"/></g></svg>