<svg width="319" height="195" fill="none" xmlns="http://www.w3.org/2000/svg"><g clip-path="url('#clip0_52_4784')"><path d="M157.625 195c-1.081 0-2.091-.288-3.028-.792l-9.59-5.686c-1.442-.792-.721-1.08-.289-1.224 1.947-.648 2.308-.792 4.327-1.944.216-.144.504-.072.721.072l7.355 4.391c.288.144.649.144.865 0l28.77-16.628c.289-.144.433-.432.433-.791v-33.184c0-.36-.144-.648-.433-.792l-28.77-16.556c-.289-.144-.649-.144-.865 0l-28.771 16.556c-.288.144-.433.504-.433.792v33.184c0 .288.145.647.433.791l7.86 4.535c4.254 2.16 6.922-.36 6.922-2.879v-32.752c0-.432.36-.864.865-.864h3.678c.432 0 .865.36.865.864v32.752c0 5.687-3.101 8.998-8.509 8.998-1.658 0-2.956 0-6.633-1.8l-7.572-4.319a6.073 6.073 0 0 1-3.028-5.254v-33.184a6.074 6.074 0 0 1 3.028-5.255l28.771-16.628c1.803-1.008 4.254-1.008 6.057 0l28.77 16.628a6.073 6.073 0 0 1 3.029 5.255v33.184a6.072 6.072 0 0 1-3.029 5.254l-28.77 16.628c-.865.36-1.947.648-3.029.648Z" fill="#5FA04E"/><path d="M166.567 172.182c-12.619 0-15.215-5.759-15.215-10.654 0-.432.361-.864.865-.864h3.75c.433 0 .793.288.793.72.577 3.815 2.235 5.687 9.879 5.687 6.057 0 8.652-1.368 8.652-4.607 0-1.872-.721-3.239-10.167-4.175-7.859-.792-12.762-2.519-12.762-8.782 0-5.83 4.903-9.286 13.123-9.286 9.23 0 13.772 3.168 14.349 10.078 0 .216-.072.432-.216.648-.144.144-.361.288-.577.288h-3.822a.845.845 0 0 1-.793-.648c-.865-3.959-3.1-5.255-9.013-5.255-6.634 0-7.427 2.304-7.427 4.031 0 2.088.937 2.736 9.878 3.887 8.87 1.152 13.052 2.808 13.052 8.998 0 6.335-5.264 9.934-14.349 9.934ZM208.1 137.342c0 3.023-2.524 5.543-5.552 5.543-3.029 0-5.552-2.448-5.552-5.543 0-3.167 2.595-5.542 5.552-5.542 2.956 0 5.552 2.447 5.552 5.542Zm-10.239 0c0 2.592 2.091 4.679 4.615 4.679 2.596 0 4.687-2.159 4.687-4.679 0-2.591-2.091-4.607-4.687-4.607-2.452 0-4.615 2.016-4.615 4.607Zm2.596-3.095h2.163c.721 0 2.163 0 2.163 1.656 0 1.151-.721 1.367-1.154 1.511.866.072.938.648 1.01 1.44.072.504.144 1.367.288 1.655h-1.298c0-.288-.216-1.871-.216-1.943-.072-.36-.216-.504-.649-.504h-1.081v2.519h-1.226v-6.334Zm1.153 2.735h.938c.793 0 .937-.576.937-.864 0-.863-.577-.863-.937-.863h-1.01v1.727h.072Z" fill="#5FA04E"/><path fill-rule="evenodd" clip-rule="evenodd" d="M68.43 65.216c0-1.296-.722-2.52-1.876-3.167l-30.5-17.636c-.505-.288-1.082-.432-1.66-.504h-.288c-.576 0-1.153.216-1.658.504L1.875 61.977A3.69 3.69 0 0 0 0 65.216l.072 47.22c0 .648.36 1.296.937 1.584.577.36 1.298.36 1.803 0l18.171-10.366a3.66 3.66 0 0 0 1.875-3.167V78.389c0-1.296.72-2.52 1.875-3.167l7.715-4.463c.577-.36 1.226-.504 1.875-.504s1.298.144 1.803.504l7.715 4.463a3.661 3.661 0 0 1 1.875 3.167v22.098a3.66 3.66 0 0 0 1.874 3.167l18.027 10.366c.577.36 1.298.36 1.875 0 .577-.288.937-.936.937-1.584v-47.22ZM215.382.216c-.576-.288-1.297-.288-1.802 0-.577.36-.938.936-.938 1.584v46.788c0 .432-.216.864-.649 1.152a1.38 1.38 0 0 1-1.297 0l-7.644-4.391a3.721 3.721 0 0 0-3.677 0l-30.573 17.636a3.66 3.66 0 0 0-1.875 3.167v35.199a3.66 3.66 0 0 0 1.875 3.167l30.573 17.636a3.72 3.72 0 0 0 3.677 0l30.573-17.636a3.66 3.66 0 0 0 1.875-3.167V13.605a3.69 3.69 0 0 0-1.875-3.24L215.382.215Zm-2.812 89.546c0 .36-.144.648-.432.792L201.682 96.6a1.07 1.07 0 0 1-.937 0l-10.456-6.046c-.288-.144-.432-.504-.432-.792V77.669c0-.36.144-.648.432-.792l10.456-6.046a1.07 1.07 0 0 1 .937 0l10.456 6.046c.288.144.432.504.432.792v12.093ZM317.125 77.38c1.154-.647 1.803-1.87 1.803-3.166v-8.566c0-1.296-.721-2.52-1.803-3.167l-30.356-17.564a3.723 3.723 0 0 0-3.678 0l-30.573 17.636a3.66 3.66 0 0 0-1.875 3.167v35.199a3.66 3.66 0 0 0 1.875 3.167l30.357 17.276c1.153.648 2.523.648 3.605 0l18.387-10.221c.577-.288.938-.936.938-1.584s-.361-1.296-.938-1.584L274.15 90.338c-.577-.36-.938-.936-.938-1.584V77.741c0-.648.361-1.296.938-1.584l9.59-5.47a1.763 1.763 0 0 1 1.875 0l9.59 5.47c.577.36.937.936.937 1.584v8.638c0 .648.361 1.295.938 1.583.577.36 1.298.36 1.875 0l18.17-10.581Z" fill="#fff"/><path fill-rule="evenodd" clip-rule="evenodd" d="M284.461 75.725a.656.656 0 0 1 .721 0l5.841 3.384c.216.144.36.36.36.647v6.767a.756.756 0 0 1-.36.648l-5.841 3.383a.656.656 0 0 1-.721 0l-5.841-3.383a.756.756 0 0 1-.36-.648v-6.767c0-.288.144-.504.36-.647l5.841-3.384Z" fill="#5FA04E"/><path d="M119.553 45.06a3.723 3.723 0 0 0-3.678 0L85.519 62.554c-1.154.647-1.803 1.871-1.803 3.167v35.055c0 1.296.72 2.52 1.803 3.167l30.356 17.492a3.722 3.722 0 0 0 3.678 0l30.357-17.492c1.153-.647 1.802-1.871 1.802-3.167V65.72c0-1.296-.721-2.52-1.802-3.167L119.553 45.06Z" fill="url('#paint0_linear_52_4784')"/><path d="M149.982 62.553 119.481 45.06a5.016 5.016 0 0 0-.938-.36l-34.178 58.378c.288.36.649.647 1.01.863l30.5 17.492c.866.504 1.875.648 2.813.36L150.775 63.2a2.254 2.254 0 0 0-.793-.647Z" fill="url('#paint1_linear_52_4784')"/><path d="m114.866 38.654-.433.216h.577l-.144-.215Z" fill="url('#paint2_linear_52_4784')"/><path d="M149.982 103.942c.865-.503 1.514-1.367 1.803-2.303l-33.386-57.01c-.865-.144-1.802-.072-2.596.432L85.519 62.48l32.664 59.457a5.032 5.032 0 0 0 1.37-.432l30.429-17.564Z" fill="url('#paint3_linear_52_4784')"/><path d="m152.866 103.367-.216-.36v.504l.216-.144Z" fill="url('#paint4_linear_52_4784')"/><path d="m149.982 103.942-30.429 17.492c-.433.216-.866.36-1.37.432l.576 1.08 33.746-19.507v-.432l-.865-1.44c-.072 1.008-.721 1.872-1.658 2.375Z" fill="url('#paint5_linear_52_4784')"/><path d="m149.982 103.942-30.429 17.492c-.433.216-.866.36-1.37.432l.576 1.08 33.746-19.507v-.432l-.865-1.44c-.072 1.008-.721 1.872-1.658 2.375Z" fill="url('#paint6_linear_52_4784')"/></g><defs><linearGradient id="paint0_linear_52_4784" x1="130.077" y1="58.088" x2="102.706" y2="114.021" gradientUnits="userSpaceOnUse"><stop stop-color="#3F873F"/><stop offset=".33" stop-color="#3F8B3D"/><stop offset=".637" stop-color="#3E9638"/><stop offset=".934" stop-color="#3DA92E"/><stop offset="1" stop-color="#3DAE2B"/></linearGradient><linearGradient id="paint1_linear_52_4784" x1="113.101" y1="87.341" x2="190.022" y2="30.409" gradientUnits="userSpaceOnUse"><stop offset=".138" stop-color="#3F873F"/><stop offset=".402" stop-color="#52A044"/><stop offset=".713" stop-color="#64B749"/><stop offset=".908" stop-color="#6ABF4B"/></linearGradient><linearGradient id="paint2_linear_52_4784" x1="82.602" y1="38.739" x2="152.847" y2="38.739" gradientUnits="userSpaceOnUse"><stop offset=".092" stop-color="#6ABF4B"/><stop offset=".287" stop-color="#64B749"/><stop offset=".598" stop-color="#52A044"/><stop offset=".862" stop-color="#3F873F"/></linearGradient><linearGradient id="paint3_linear_52_4784" x1="82.603" y1="83.236" x2="152.847" y2="83.236" gradientUnits="userSpaceOnUse"><stop offset=".092" stop-color="#6ABF4B"/><stop offset=".287" stop-color="#64B749"/><stop offset=".598" stop-color="#52A044"/><stop offset=".862" stop-color="#3F873F"/></linearGradient><linearGradient id="paint4_linear_52_4784" x1="82.602" y1="103.255" x2="152.847" y2="103.255" gradientUnits="userSpaceOnUse"><stop offset=".092" stop-color="#6ABF4B"/><stop offset=".287" stop-color="#64B749"/><stop offset=".598" stop-color="#52A044"/><stop offset=".862" stop-color="#3F873F"/></linearGradient><linearGradient id="paint5_linear_52_4784" x1="82.603" y1="112.303" x2="152.847" y2="112.303" gradientUnits="userSpaceOnUse"><stop offset=".092" stop-color="#6ABF4B"/><stop offset=".287" stop-color="#64B749"/><stop offset=".598" stop-color="#52A044"/><stop offset=".862" stop-color="#3F873F"/></linearGradient><linearGradient id="paint6_linear_52_4784" x1="163.081" y1="56.431" x2="119.879" y2="144.714" gradientUnits="userSpaceOnUse"><stop stop-color="#3F873F"/><stop offset=".33" stop-color="#3F8B3D"/><stop offset=".637" stop-color="#3E9638"/><stop offset=".934" stop-color="#3DA92E"/><stop offset="1" stop-color="#3DAE2B"/></linearGradient><clipPath id="clip0_52_4784"><path fill="#fff" d="M0 0h319v195H0z"/></clipPath></defs></svg>