<svg xmlns="http://www.w3.org/2000/svg" xmlns:xlink="http://www.w3.org/1999/xlink" width="78" height="77.594" id="svg2169" version="1.0"><defs id="defs2171"><linearGradient id="linearGradient11301"><stop id="stop11303" offset="0" style="stop-color:#ffe052;stop-opacity:1"/><stop id="stop11305" offset="1" style="stop-color:#ffc331;stop-opacity:1"/></linearGradient><linearGradient gradientUnits="userSpaceOnUse" y2="168.101" x2="147.777" y1="111.921" x1="89.137" id="linearGradient11307" xlink:href="#linearGradient11301"/><linearGradient id="linearGradient9515"><stop id="stop9517" offset="0" style="stop-color:#387eb8;stop-opacity:1"/><stop id="stop9519" offset="1" style="stop-color:#366994;stop-opacity:1"/></linearGradient><linearGradient gradientUnits="userSpaceOnUse" y2="131.853" x2="110.149" y1="77.07" x1="55.549" id="linearGradient9521" xlink:href="#linearGradient9515"/></defs><g id="layer1" transform="translate(-489.571 -267.851)"><g id="g1894" transform="matrix(.70639 0 0 .70639 457.828 220.192)"><path style="color:#000;fill:url(#linearGradient9521);fill-opacity:1;fill-rule:nonzero;stroke:none;stroke-width:1px;marker:none;visibility:visible;display:inline;overflow:visible" d="M99.75 67.469c-28.032 0-26.281 12.156-26.281 12.156l.031 12.594h26.75V96H62.875s-17.938-2.034-17.938 26.25 15.657 27.281 15.657 27.281h9.343v-13.125s-.503-15.656 15.407-15.656h26.531s14.906.241 14.906-14.406V82.125s2.263-14.656-27.031-14.656zM85 75.938a4.808 4.808 0 0 1 4.813 4.812A4.808 4.808 0 0 1 85 85.563a4.808 4.808 0 0 1-4.813-4.813A4.808 4.808 0 0 1 85 75.937z" id="path8615"/><path id="path8620" d="M100.546 177.315c28.032 0 26.281-12.156 26.281-12.156l-.03-12.594h-26.75v-3.781h37.374s17.938 2.034 17.938-26.25c0-28.285-15.657-27.282-15.657-27.282h-9.343v13.125s.503 15.657-15.407 15.657h-26.53s-14.907-.241-14.907 14.406v24.219s-2.263 14.656 27.031 14.656zm14.75-8.469a4.808 4.808 0 0 1-4.812-4.812 4.808 4.808 0 0 1 4.812-4.813 4.808 4.808 0 0 1 4.813 4.813 4.808 4.808 0 0 1-4.813 4.812z" style="color:#000;fill:url(#linearGradient11307);fill-opacity:1;fill-rule:nonzero;stroke:none;stroke-width:1px;marker:none;visibility:visible;display:inline;overflow:visible"/></g></g></svg>