<svg width="80" height="80" xmlns="http://www.w3.org/2000/svg"><defs><linearGradient x1="0%" y1="100%" x2="100%" y2="0%" id="linearGradient-1"><stop stop-color="#1B660F" offset="0%"/><stop stop-color="#6CAE3E" offset="100%"/></linearGradient></defs><g id="Icon-Architecture/64/Arch_Amazon-Simple-Storage-Service_64" stroke="none" stroke-width="1" fill="none" fill-rule="evenodd"><path d="M0 0h80v80H0z" id="Rectangle" fill="url('#linearGradient-1')"/><g id="Icon-Service/64/Amazon-Simple-Storage-Service_64" transform="translate(8 8)" fill="#FFF"><path d="m52.836 34.893.384-2.704c3.54 2.12 3.587 2.997 3.586 3.02-.006.006-.61.51-3.97-.316Zm-1.943-.54C44.773 32.5 36.25 28.59 32.8 26.96c0-.014.004-.027.004-.041a2.406 2.406 0 0 0-2.404-2.403 2.406 2.406 0 0 0-2.402 2.403 2.406 2.406 0 0 0 2.402 2.403c.582 0 1.11-.217 1.527-.562 4.058 1.92 12.515 5.774 18.68 7.594L48.17 53.56a.955.955 0 0 0-.01.14c0 1.516-6.707 4.299-17.666 4.299-11.075 0-17.853-2.783-17.853-4.298 0-.046-.003-.091-.01-.136L7.539 16.359c4.409 3.035 13.892 4.64 22.962 4.64 9.056 0 18.523-1.6 22.94-4.625l-2.547 17.979ZM7 12.478C7.072 11.162 14.634 6 30.5 6c15.864 0 23.427 5.16 23.5 6.478v.449C53.13 15.877 43.33 19 30.5 19 17.648 19 7.843 15.868 7 12.913v-.435Zm49 .022C56 9.035 46.066 4 30.5 4S5 9.035 5 12.5l.094.754 5.548 40.524C10.775 58.31 22.86 60 30.494 60c9.472 0 19.535-2.178 19.665-6.22l2.396-16.896c1.333.319 2.43.482 3.31.482 1.184 0 1.984-.29 2.469-.867a1.95 1.95 0 0 0 .436-1.66c-.26-1.383-1.902-2.875-5.248-4.784l2.376-16.762L56 12.5Z" id="Amazon-Simple-Storage-Service-Icon_64_Squid"/></g></g></svg>